<svg height="512" viewBox="0 0 512 512" width="512" xmlns="http://www.w3.org/2000/svg"><g id="Filledoutline"><path d="m224 64h256v120h-256z" fill="#f8bc1e"/><path d="m480 72h-256v16h232v8.31a63.69 63.69 0 0 1 -63.69 63.69h-148.31a12 12 0 0 0 -12 12v12h248z" fill="#f5a922"/><path d="m216 40h272v32h-272z" fill="#f8bc1e"/><path d="m304 40h96v88h-96z" fill="#f9da62"/><path d="m304 72h96v16h-96z" fill="#f8bc1e"/><path d="m224 208h256v120h-256z" fill="#f8bc1e"/><path d="m480 216h-256v16h232v8.31a63.69 63.69 0 0 1 -63.69 63.69h-148.31a12 12 0 0 0 -12 12v12h248z" fill="#f5a922"/><path d="m216 184h272v32h-272z" fill="#f8bc1e"/><path d="m304 184h96v88h-96z" fill="#f9da62"/><path d="m304 216h96v16h-96z" fill="#f8bc1e"/><path d="m224 352h256v120h-256z" fill="#f8bc1e"/><path d="m480 360h-256v16h232v8.31a63.69 63.69 0 0 1 -63.69 63.69h-148.31a12 12 0 0 0 -12 12v12h248z" fill="#f5a922"/><path d="m216 328h272v32h-272z" fill="#f8bc1e"/><path d="m304 328h96v88h-96z" fill="#f9da62"/><path d="m304 360h96v16h-96z" fill="#f8bc1e"/><path d="m88 184h224v304h-224z" fill="#0093b9"/><path d="m16 416 16-16v-72a24 24 0 0 1 24-24h32v32l20-20a16.971 16.971 0 0 1 24 0 16.971 16.971 0 0 1 0 24l-36 36a45.255 45.255 0 0 1 0 64l-40 40z" fill="#f7c9a8"/><path d="m312 176h-224a8 8 0 0 0 -8 8v112h-24a32.036 32.036 0 0 0 -32 32v68.687l-13.657 13.656 11.314 11.314 16-16a8 8 0 0 0 2.343-5.657v-72a16.019 16.019 0 0 1 16-16h24v20.686l-13.657 13.657 11.314 11.314 36-36a8.97 8.97 0 1 1 12.686 12.686l-36 36a8 8 0 0 0 0 11.314 37.254 37.254 0 0 1 0 52.686l-40 40 11.314 11.314 18.343-18.343v20.686a8 8 0 0 0 8 8h224a8 8 0 0 0 8-8v-304a8 8 0 0 0 -8-8zm-8 304h-208v-28.686l5.657-5.657a53.282 53.282 0 0 0 5.238-69.238l30.762-30.762a24.971 24.971 0 0 0 -35.314-35.314l-6.343 6.343v-124.686h208z"/><path d="m496 72v-32a8 8 0 0 0 -8-8h-272a8 8 0 0 0 -8 8v32a8 8 0 0 0 8 8v48h16v-48h64v48a8 8 0 0 0 8 8h96a8 8 0 0 0 8-8v-48h64v96h-136v16h56v16h-56v16h56v40h-56v16h64a8 8 0 0 0 8-8v-48h64v96h-136v16h56v16h-56v16h56v40h-56v16h64a8 8 0 0 0 8-8v-48h64v96h-136v16h144a8 8 0 0 0 8-8v-104a8 8 0 0 0 8-8v-32a8 8 0 0 0 -8-8v-96a8 8 0 0 0 8-8v-32a8 8 0 0 0 -8-8v-96a8 8 0 0 0 8-8zm-88 264h72v16h-72zm0-144h72v16h-72zm-16-144v16h-80v-16zm-168 16v-16h72v16zm168 56h-80v-40h80zm16-72h72v16h-72z"/><path d="m440 432h16v16h-16z"/><path d="m440 288h16v16h-16z"/><path d="m440 144h16v16h-16z"/><path d="m192 302.955v9.045h16v-9.045a22.834 22.834 0 0 0 3.378-42.21l-15.6-7.8a6.833 6.833 0 0 1 3.055-12.945h2.334a6.84 6.84 0 0 1 6.833 6.833v1.167h16v-1.167a22.874 22.874 0 0 0 -16-21.788v-9.045h-16v9.045a22.834 22.834 0 0 0 -3.378 42.21l15.6 7.8a6.833 6.833 0 0 1 -3.055 12.945h-2.334a6.84 6.84 0 0 1 -6.833-6.833v-1.167h-16v1.167a22.874 22.874 0 0 0 16 21.788z"/><path d="m144 256h16v16h-16z"/><path d="m240 256h16v16h-16z"/><path d="m160 336h16v16h-16z"/><path d="m192 336h88v16h-88z"/><path d="m136 368h144v16h-144z"/><path d="m136 400h144v16h-144z"/><path d="m136 432h120v16h-120z"/><path d="m112 144h144v16h-144z"/><path d="m272 144h16v16h-16z"/></g></svg>